<?xml version="1.0" encoding="UTF-8" standalone="no"?>
<svg width="32px" height="32px" viewBox="0 0 32 32" version="1.1" xmlns="http://www.w3.org/2000/svg" xmlns:xlink="http://www.w3.org/1999/xlink">
    <!-- Generator: Sketch 44.1 (41455) - http://www.bohemiancoding.com/sketch -->
    <title>Upload</title>
    <desc>Created with Sketch.</desc>
    <defs></defs>
    <g id="Page-2-Copy" stroke="none" stroke-width="1" fill="none" fill-rule="evenodd">
        <g id="76" stroke="#979797" fill-rule="nonzero">
            <path d="M15,3.89949494 L11.1213203,7.77817459 C10.7307961,8.16869888 10.0976311,8.16869888 9.70710678,7.77817459 C9.31658249,7.3876503 9.31658249,6.75448532 9.70710678,6.36396103 L15.363961,0.707106781 C15.7544853,0.316582489 16.3876503,0.316582489 16.7781746,0.707106781 L22.4350288,6.36396103 C22.8255531,6.75448532 22.8255531,7.3876503 22.4350288,7.77817459 C22.0445046,8.16869888 21.4113396,8.16869888 21.0208153,7.77817459 L17,3.75735931 L17,25.9967004 C17,26.5487213 16.5522847,27 16,27 C15.4438648,27 15,26.5508075 15,25.9967004 L15,3.89949494 L15,3.89949494 Z" id="Rectangle-357" stroke="none" fill="#2A2630"></path>
            <path d="M30,31 L31,30 L24.0644531,30 L8.02148437,30 L1,30 L2,31 L2,13 C2,12.4477153 1.55228475,12 1,12 C0.44771525,12 3.66171977e-15,12.4477153 3.55271368e-15,13 L0,31 C0,31.5522847 0.44771525,32 1,32 L8.02148437,32 L24.0644531,32 L31,32 C31.5522847,32 32,31.5522847 32,31 L32,13 C32,12.4477153 31.5522847,12 31,12 C30.4477153,12 30,12.4477153 30,13 L30,31 L30,31 Z" id="Rectangle-508" stroke="none" fill="#95909E"></path>
        </g>
    </g>
</svg>